<svg width="14" height="14" viewBox="0 0 14 14" fill="none" xmlns="http://www.w3.org/2000/svg">
<path fill-rule="evenodd" clip-rule="evenodd" d="M12.0813 1.98917L12.0113 1.91917C11.8995 1.81257 11.7516 1.75215 11.5971 1.75H6.95963C6.64869 1.74975 6.35051 1.87364 6.1313 2.09417L1.91963 6.30583C1.69346 6.53336 1.69346 6.90081 1.91963 7.12833L6.87213 12.0808C7.09965 12.307 7.46711 12.307 7.69463 12.0808L11.9063 7.86917C12.1268 7.64995 12.2507 7.35178 12.2505 7.04083V2.40333C12.2483 2.24889 12.1879 2.10095 12.0813 1.98917ZM11.0837 7.04083L7.28615 10.8442L3.15615 6.71417L6.95949 2.91667H11.0837V7.04083ZM9.91705 5.25C9.91705 5.89433 9.39472 6.41667 8.75039 6.41667C8.10605 6.41667 7.58372 5.89433 7.58372 5.25C7.58372 4.60567 8.10605 4.08333 8.75039 4.08333C9.39472 4.08333 9.91705 4.60567 9.91705 5.25Z" fill="black"/>
</svg>
