<svg width="14" height="15" viewBox="0 0 14 15" fill="none" xmlns="http://www.w3.org/2000/svg">
<path fill-rule="evenodd" clip-rule="evenodd" d="M6.99935 2.02393C3.77747 2.02393 1.16602 4.61038 1.16602 7.80141C1.16602 10.9924 3.77747 13.5789 6.99935 13.5789C10.2212 13.5789 12.8327 10.9924 12.8327 7.80141C12.8327 4.61038 10.2212 2.02393 6.99935 2.02393ZM6.99935 2.89055C9.73798 2.89055 11.9577 5.08901 11.9577 7.80141C11.9577 10.5138 9.73798 12.7123 6.99935 12.7123C4.26072 12.7123 2.04102 10.5138 2.04102 7.80141C2.04102 5.08901 4.26072 2.89055 6.99935 2.89055ZM7.23552 5.34299C7.20655 5.13149 7.02351 4.96847 6.80202 4.96847C6.56039 4.96847 6.36452 5.16247 6.36452 5.40178V8.20213L6.36939 8.26669C6.38872 8.39383 6.46446 8.50725 6.57788 8.57426L8.77705 9.87361L8.83008 9.90034C9.02831 9.98405 9.26344 9.91187 9.37691 9.72348L9.40389 9.67096C9.48842 9.47462 9.41554 9.24175 9.22532 9.12936L7.23928 7.95549L7.23952 5.40178L7.23552 5.34299Z" fill="#200E32"/>
</svg>
