<svg width="18" height="18" viewBox="0 0 18 18" fill="none" xmlns="http://www.w3.org/2000/svg">
<path d="M15.75 14.2519C15.75 15.4935 14.7426 16.5 13.5 16.5C12.2574 16.5 11.25 15.4935 11.25 14.2519C11.2463 14.1895 11.2463 14.127 11.25 14.0646C11.2631 13.9203 11.1934 13.781 11.07 13.7049L6.165 10.8423C6.04161 10.7632 5.88339 10.7632 5.76 10.8423C5.39226 11.1056 4.95237 11.2495 4.5 11.2545C3.25736 11.2545 2.25 10.248 2.25 9.00641C2.25 7.76483 3.25736 6.75833 4.5 6.75833C4.95076 6.75893 5.3905 6.89754 5.76 7.15549C5.88339 7.23459 6.04161 7.23459 6.165 7.15549L11.0775 4.29294C11.193 4.21754 11.2589 4.08581 11.25 3.94823C11.2463 3.88584 11.2463 3.82328 11.25 3.76089C11.2441 2.70549 11.9738 1.78807 13.0041 1.55549C14.0345 1.32291 15.088 1.83779 15.5368 2.79323C15.9856 3.74867 15.7087 4.88738 14.8713 5.53062C14.0338 6.17385 12.8612 6.1484 12.0525 5.46943L6.9225 8.46687C6.79911 8.54298 6.72941 8.68227 6.7425 8.82656C6.7525 8.95125 6.7525 9.07655 6.7425 9.20124C6.72941 9.34554 6.79911 9.48482 6.9225 9.56093L11.835 12.4235C11.9584 12.5026 12.1166 12.5026 12.24 12.4235C12.6069 12.1575 13.0468 12.011 13.5 12.0038C14.7426 12.0038 15.75 13.0103 15.75 14.2519Z" fill="#393939"/>
</svg>
