<svg width="40" height="40" viewBox="0 0 40 40" fill="none" xmlns="http://www.w3.org/2000/svg">
<path d="M5 8.33333C5 6.49238 6.49238 5 8.33333 5H13.7987C14.5161 5 15.153 5.45905 15.3799 6.13962L17.8762 13.6287C18.1385 14.4155 17.7823 15.2755 17.0404 15.6464L13.2783 17.5275C15.1154 21.602 18.398 24.8846 22.4725 26.7217L24.3536 22.9596C24.7245 22.2177 25.5845 21.8615 26.3713 22.1238L33.8604 24.6201C34.5409 24.847 35 25.4839 35 26.2013V31.6667C35 33.5076 33.5076 35 31.6667 35H30C16.1929 35 5 23.8071 5 10V8.33333Z" stroke="#F97316" stroke-width="2" stroke-linecap="round" stroke-linejoin="round"/>
</svg>
