<svg width="16" height="16" viewBox="0 0 16 16" fill="none" xmlns="http://www.w3.org/2000/svg">
<path d="M8.14062 0C8.64689 0 9.06528 0.511475 9.1315 1.17508L9.14062 1.35956V14.6404C9.14062 15.3913 8.69291 16 8.14062 16C7.63436 16 7.21597 15.4885 7.14975 14.8249L7.14062 14.6404V1.35956C7.14062 0.608698 7.58834 0 8.14062 0Z" fill="white"/>
<path d="M14.6415 7C15.3918 7 16 7.44772 16 8C16 8.50626 15.4889 8.92465 14.8258 8.99087L14.6415 9H1.35849C0.608217 9 0 8.55228 0 8C0 7.49374 0.511071 7.07535 1.17415 7.00913L1.35849 7H14.6415Z" fill="white"/>
</svg>
