<svg width="36" height="36" viewBox="0 0 36 36" fill="none" xmlns="http://www.w3.org/2000/svg">
<path d="M32.625 32.625H3.375V25.875C3.375 24.6375 4.3875 23.625 5.625 23.625H30.375C31.6125 23.625 32.625 24.6375 32.625 25.875V32.625Z" stroke="white" stroke-width="2" stroke-miterlimit="10" stroke-linecap="round" stroke-linejoin="round"/>
<path d="M23.625 28.125H28.125" stroke="white" stroke-width="2" stroke-miterlimit="10" stroke-linecap="round" stroke-linejoin="round"/>
<path d="M19.125 28.125H20.25" stroke="white" stroke-width="2" stroke-miterlimit="10" stroke-linecap="round" stroke-linejoin="round"/>
<path d="M7.875 11.25V23.625" stroke="white" stroke-width="2" stroke-miterlimit="10" stroke-linecap="round" stroke-linejoin="round"/>
<path d="M17.6626 20.025C19.9126 17.775 21.3751 14.625 21.3751 11.25C21.3751 7.875 19.9126 4.725 17.6626 2.475" stroke="white" stroke-width="2" stroke-miterlimit="10" stroke-linecap="round" stroke-linejoin="round"/>
<path d="M14.5125 16.875C15.975 15.4125 16.875 13.5 16.875 11.25C16.875 9 15.975 7.0875 14.5125 5.625" stroke="white" stroke-width="2" stroke-miterlimit="10" stroke-linecap="round" stroke-linejoin="round"/>
<path d="M11.25 13.725C11.925 13.1625 12.375 12.2625 12.375 11.25C12.375 10.2375 11.925 9.45 11.25 8.775" stroke="white" stroke-width="2" stroke-miterlimit="10" stroke-linecap="round" stroke-linejoin="round"/>
</svg>
