<?xml version="1.0" encoding="utf-8"?>
<!-- Generator: Adobe Illustrator 26.1.0, SVG Export Plug-In . SVG Version: 6.00 Build 0)  -->
<svg version="1.1" id="Capa_1" xmlns="http://www.w3.org/2000/svg" xmlns:xlink="http://www.w3.org/1999/xlink" x="0px" y="0px"
	 viewBox="0 0 1011.83 266.08" style="enable-background:new 0 0 1011.83 266.08;" xml:space="preserve">
<style type="text/css">
	.st0{clip-path:url(#SVGID_00000144322216423836832280000009371241010942316682_);}
	.st1{fill:#E2E8E8;}
	.st2{fill:#FFFFFF;}
	.st3{fill:#1A1A1A;}
	.st4{fill:#EE891E;}
	.st5{fill:#57585B;}
	.st6{fill:#A6936F;}
	.st7{clip-path:url(#SVGID_00000059296815566451043810000005727601753529636523_);}
	.st8{clip-path:url(#SVGID_00000175302622061271426580000006969667294898712982_);}
	.st9{clip-path:url(#SVGID_00000102537895811371600770000001336740090149044149_);}
	.st10{clip-path:url(#SVGID_00000182511168199155318310000014770373360886414245_);}
	.st11{clip-path:url(#SVGID_00000119107498412232730470000010942187291972451210_);}
	.st12{opacity:0.15;}
	.st13{clip-path:url(#SVGID_00000031205881977049697380000002369817826591597963_);}
	.st14{clip-path:url(#SVGID_00000064321968695557452590000002201270206582835599_);}
	.st15{clip-path:url(#SVGID_00000023989454962428583510000014088296326756435901_);}
	.st16{clip-path:url(#SVGID_00000183942048086885778430000012202362733411705229_);}
	.st17{clip-path:url(#SVGID_00000066499214793307856070000000625400843538794148_);}
	.st18{clip-path:url(#SVGID_00000161592251063131020610000005616463982853755044_);}
	.st19{clip-path:url(#SVGID_00000079444027612932233550000012111004734467536280_);}
	.st20{clip-path:url(#SVGID_00000017486782437114191500000014008935117539536056_);}
</style>
<g class="st12">
	<defs>
		
			<rect id="SVGID_00000154410409500069997240000012758094445220479128_" x="1772.82" y="-272.63" class="st12" width="1011.83" height="228"/>
	</defs>
	<clipPath id="SVGID_00000057847878568671849880000003793298975342936216_">
		<use xlink:href="#SVGID_00000154410409500069997240000012758094445220479128_"  style="overflow:visible;"/>
	</clipPath>
	<g style="clip-path:url(#SVGID_00000057847878568671849880000003793298975342936216_);">
		<g>
			<polygon class="st5" points="41.05,23 164.15,23 148.2,37.79 25.13,37.79 			"/>
			<polygon class="st5" points="434.44,23 556.87,23 540.92,37.79 418.49,37.79 			"/>
			<polygon class="st5" points="827.16,23 950.82,23 934.87,37.79 811.21,37.79 			"/>
			<polygon class="st5" points="-22.7,82.14 100.39,82.14 84.47,96.91 -38.63,96.91 			"/>
			<polygon class="st5" points="370.65,82.14 493.08,82.14 477.16,96.91 354.73,96.91 			"/>
			<polygon class="st5" points="763.37,82.14 887.03,82.14 871.11,96.91 747.48,96.91 			"/>
		</g>
		<g>
			<polygon class="st5" points="41.05,23 25.13,37.79 9.19,52.57 -261.1,52.57 -245.16,37.79 -229.24,23 			"/>
			<g>
				<polygon class="st5" points="1221.11,23 1205.16,37.79 1189.21,52.57 918.92,52.57 934.87,37.79 950.82,23 				"/>
				<polygon class="st5" points="1157.32,82.14 1141.43,96.91 1125.48,111.69 855.17,111.69 871.11,96.91 887.03,82.14 				"/>
				<polygon class="st5" points="827.16,23 795.27,52.57 524.98,52.57 556.87,23 				"/>
				<polygon class="st5" points="763.37,82.14 747.48,96.91 731.53,111.69 461.22,111.69 477.16,96.91 493.08,82.14 				"/>
			</g>
			<polygon class="st5" points="434.44,23 402.55,52.57 132.26,52.57 164.15,23 			"/>
			<polygon class="st5" points="370.65,82.14 354.73,96.91 338.79,111.69 68.52,111.69 84.47,96.91 100.39,82.14 			"/>
		</g>
	</g>
</g>
<g>
	<defs>
		<rect id="SVGID_00000137111962186827561830000010736585115053644729_" x="0" width="1011.83" height="266.08"/>
	</defs>
	<clipPath id="SVGID_00000137111233046979714810000017956199214576426920_">
		<use xlink:href="#SVGID_00000137111962186827561830000010736585115053644729_"  style="overflow:visible;"/>
	</clipPath>
	<g style="clip-path:url(#SVGID_00000137111233046979714810000017956199214576426920_);">
		<g>
			<polygon class="st5" points="160.43,0 283.5,0 267.55,14.79 144.48,14.79 			"/>
			<polygon class="st5" points="553.79,0 676.45,0 660.51,14.79 537.84,14.79 			"/>
			<polygon class="st5" points="1011.83,0 1011.83,14.79 930.8,14.79 946.74,0 			"/>
			<polygon class="st5" points="96.65,59.14 219.71,59.14 203.79,73.91 80.72,73.91 			"/>
			<polygon class="st5" points="490.01,59.14 612.69,59.14 596.77,73.91 474.08,73.91 			"/>
			<polygon class="st5" points="1006.05,59.14 990.13,73.91 867.04,73.91 882.96,59.14 			"/>
			<polygon class="st5" points="32.89,118.27 155.96,118.27 140.04,133.05 16.94,133.05 			"/>
			<polygon class="st5" points="426.25,118.27 548.94,118.27 532.99,133.05 410.3,133.05 			"/>
			<polygon class="st5" points="942.3,118.27 926.37,133.05 803.28,133.05 819.23,118.27 			"/>
			<polygon class="st5" points="-30.85,177.39 92.22,177.39 76.28,192.17 -46.79,192.17 			"/>
			<polygon class="st5" points="362.51,177.39 485.2,177.39 469.26,192.17 346.57,192.17 			"/>
			<polygon class="st5" points="878.56,177.39 862.62,192.17 739.52,192.17 755.47,177.39 			"/>
			<polygon class="st5" points="-94.6,236.51 28.47,236.51 12.52,251.29 -110.55,251.29 			"/>
			<polygon class="st5" points="298.76,236.51 421.44,236.51 405.5,251.29 282.81,251.29 			"/>
			<polygon class="st5" points="814.8,236.51 798.86,251.29 675.79,251.29 691.74,236.51 			"/>
		</g>
		<g>
			<g>
				<polygon class="st5" points="160.43,0 128.54,29.57 -141.78,29.57 -109.89,0 				"/>
				<polygon class="st5" points="96.65,59.14 80.72,73.91 64.78,88.69 -205.51,88.69 -189.57,73.91 -173.67,59.14 				"/>
				<polygon class="st5" points="32.89,118.27 16.94,133.05 1.02,147.81 -269.27,147.81 -253.35,133.05 -237.4,118.27 				"/>
				<polygon class="st5" points="553.79,0 521.9,29.57 251.61,29.57 283.5,0 				"/>
				<polygon class="st5" points="490.01,59.14 474.08,73.91 458.14,88.69 187.85,88.69 203.79,73.91 219.71,59.14 				"/>
				<polygon class="st5" points="426.25,118.27 410.3,133.05 394.38,147.81 124.11,147.81 140.04,133.05 155.96,118.27 				"/>
				<polygon class="st5" points="362.51,177.39 346.57,192.17 330.62,206.96 60.33,206.96 76.28,192.17 92.22,177.39 				"/>
				<polygon class="st5" points="298.76,236.51 282.81,251.29 266.87,266.08 -3.43,266.08 12.52,251.29 28.47,236.51 				"/>
			</g>
			<g>
				<polygon class="st5" points="946.74,0 914.85,29.57 644.56,29.57 676.45,0 				"/>
				<polygon class="st5" points="882.96,59.14 867.04,73.91 851.12,88.69 580.83,88.69 596.77,73.91 612.69,59.14 				"/>
				<polygon class="st5" points="819.23,118.27 803.28,133.05 787.36,147.81 517.07,147.81 532.99,133.05 548.94,118.27 				"/>
				<polygon class="st5" points="755.47,177.39 723.58,206.96 453.31,206.96 469.26,192.17 485.2,177.39 				"/>
				<polygon class="st5" points="691.74,236.51 659.84,266.08 389.55,266.08 421.44,236.51 				"/>
				<polygon class="st5" points="1011.83,118.27 1011.83,147.81 910.45,147.81 926.37,133.05 942.3,118.27 				"/>
				<polygon class="st5" points="1011.83,59.14 1011.83,88.69 974.19,88.69 990.13,73.91 1006.05,59.14 				"/>
				<polygon class="st5" points="1011.83,177.39 1011.83,206.96 846.67,206.96 878.56,177.39 				"/>
				<polygon class="st5" points="1011.83,236.51 1011.83,266.08 782.91,266.08 798.86,251.29 814.8,236.51 				"/>
			</g>
		</g>
	</g>
</g>
<g>
	<defs>
		<rect id="SVGID_00000173861428622949520640000000452089231240139671_" x="595.45" y="338.27" width="401.68" height="14.89"/>
	</defs>
	<clipPath id="SVGID_00000057827832313977469330000005013971926610836372_">
		<use xlink:href="#SVGID_00000173861428622949520640000000452089231240139671_"  style="overflow:visible;"/>
	</clipPath>
	<g style="clip-path:url(#SVGID_00000057827832313977469330000005013971926610836372_);">
		<g>
			<polygon class="st3" points="54.63,258.52 110.76,258.52 103.49,265.27 47.36,265.27 			"/>
			<polygon class="st3" points="234.04,258.52 289.88,258.52 282.61,265.27 226.77,265.27 			"/>
			<polygon class="st3" points="413.17,258.52 469.57,258.52 462.3,265.27 405.89,265.27 			"/>
			<polygon class="st3" points="592.85,258.52 648.98,258.52 641.71,265.27 585.58,265.27 			"/>
			<polygon class="st3" points="772.27,258.52 828.41,258.52 821.13,265.27 765,265.27 			"/>
			<polygon class="st3" points="951.69,258.52 1007.63,258.52 1000.36,265.27 944.41,265.27 			"/>
		</g>
		<g>
			<polygon class="st4" points="54.63,258.52 40.09,272.01 -83.21,272.01 -75.93,265.27 -68.66,258.52 			"/>
			<polygon class="st4" points="234.04,258.52 219.5,272.01 96.22,272.01 110.76,258.52 			"/>
			<g>
				<polygon class="st4" points="592.85,258.52 585.58,265.27 578.3,272.01 455.02,272.01 462.3,265.27 469.57,258.52 				"/>
				<polygon class="st4" points="413.17,258.52 398.62,272.01 275.34,272.01 289.88,258.52 				"/>
				<polygon class="st4" points="772.27,258.52 757.73,272.01 634.44,272.01 648.98,258.52 				"/>
				<polygon class="st4" points="951.69,258.52 937.14,272.01 813.86,272.01 828.41,258.52 				"/>
			</g>
			<g>
				<polygon class="st4" points="1130.92,258.52 1116.37,272.01 993.09,272.01 1007.63,258.52 				"/>
			</g>
		</g>
	</g>
</g>
</svg>
