<?xml version="1.0" encoding="utf-8"?>
<!-- Generator: Adobe Illustrator 26.2.1, SVG Export Plug-In . SVG Version: 6.00 Build 0)  -->
<svg version="1.1" id="Capa_1" xmlns="http://www.w3.org/2000/svg" xmlns:xlink="http://www.w3.org/1999/xlink" x="0px" y="0px"
	 viewBox="0 0 464.9 290.4" style="enable-background:new 0 0 464.9 290.4;" xml:space="preserve">
<style type="text/css">
	.st0{fill:#808083;stroke:#808083;stroke-miterlimit:10;}
</style>
<g>
	<path class="st0" d="M319.9,237h-22.4c2.5-1.4,2-3,1.2-5c-2-4.8-3.9-9.7-5.7-14.6c-0.3-1.3-1.6-2.2-3-2c-5.4,0.1-10.9,0-16.3,0.1
		c-0.9,0-2.2,0.7-2.5,1.4c-1.8,4.2-3.5,8.5-5,12.9c-1.7,4.8-1,5.6,4.1,6.3c0.4,0.1,0.7,0.3,1,1h-22.2l-0.1-0.6
		c0.6-0.2,1.2-0.4,1.8-0.5c4.3,0.1,6.9-2.3,8.4-6.1c2.7-6.6,5.4-13.2,8.1-19.8c4.7-11.6,9.4-23.3,14.1-34.9c0.3-0.9,0.7-1.7,1.1-2.5
		c0.5-0.6,1-1.2,1.6-1.7c0.6,0.6,1.5,1.1,1.8,1.8c2.7,6.4,5.3,12.8,8,19.3c4.5,11.1,9.1,22.1,13.6,33.1c0.7,1.8,1.5,3.5,2.4,5.2
		c1.8,3.4,4.2,5.8,8.5,5.7c0.6,0.1,1.2,0.2,1.7,0.5L319.9,237z M282.4,188.7h-0.6l-8.3,22.2h17L282.4,188.7z"/>
	<path class="st0" d="M136.1,221.3c0.3,0.7,0.7,1.1,0.6,1.6c-0.6,3.9-1.2,7.9-2.1,11.7c-0.2,0.8-1.3,1.7-2.2,2.1
		c-13,5.6-36.7,1.2-46.5-8.8c-9.6-9.8-11.5-21.7-7.6-34.4c3.9-12.7,13.2-19.5,25.9-21.8c10.3-1.8,20.6-0.6,30.7,1.6
		c0.6,0.1,1.4,1,1.4,1.5c-0.1,4.8-0.4,9.6-0.6,14.4c0,0.4-0.4,0.7-1,1.8c-0.4-1.5-0.6-2.3-0.8-3.2c-0.6-4.6-2.9-8-7.2-9.8
		c-7.7-3.3-15.6-3.9-23.6-1.2c-6.3,2.1-10.3,6.7-12.4,12.8c-3,8.7-3.2,17.6,0.3,26.3c5,12.5,17.5,21.1,34.3,17.1
		c4.8-1.1,7.8-4.5,9.3-9c0.2-0.6,0.4-1.2,0.6-1.8C135.4,221.8,135.6,221.7,136.1,221.3z"/>
	<path class="st0" d="M231,207.1c0.6-0.2,1.1-0.5,1.7-0.6c1-0.2,2-0.2,2.9-0.5c6.9-2.1,10.7-10.3,8.8-18.8
		c-1.7-7.4-8.1-12.2-15.2-11.4c-1.6,0.2-2.2,0.8-2.2,2.4c0.1,16.8,0.1,33.6,0.2,50.5c0.1,1.2,0.2,2.4,0.4,3.5
		c0.3,2.2,1.6,3.3,3.8,3.5c1.6,0.1,3.3,0.3,4.9,0.5l-0.1,0.8h-27.1l-0.1-0.6c0.8-0.3,1.7-0.5,2.5-0.5c2.7,0,4-1.5,4.2-4
		c0.2-3.2,0.5-6.3,0.6-9.5c0-13.8,0-27.7,0-41.5c0-6.1-0.8-6.7-6.8-7.3c-0.7-0.1-1.4-0.5-1.8-1.1c0.7-0.2,1.3-0.3,2-0.4
		c9.2,0,18.3,0,27.4,0c1.7,0.1,3.4,0.3,5.1,0.6c8.7,1.8,13.3,8,12.6,16.9c-0.9,11.2-11.3,19.8-22.4,18.4c-0.5-0.1-1-0.2-1.4-0.4
		L231,207.1z"/>
	<path class="st0" d="M159.1,236.3c0.8-0.2,1.7-0.3,2.5-0.4c2.8,0,4.1-1.6,4.2-4.2c0.2-3.2,0.5-6.5,0.5-9.7c0.1-14.2,0-28.4,0-42.6
		c0-0.7-0.1-1.4-0.1-2.6c-6,0.3-11.9,0.4-17.7,1c-1.6,0.2-3,2.2-4.4,3.5c-0.6,0.6-0.8,1.6-1.7,2.3c-0.4-4.4,0.6-8.5,1.6-12.2
		c18.9,1.5,37.4,0.8,55.9,0.5v12.5l-0.7,0.2c-0.3-0.5-0.8-0.9-0.8-1.3c0-3.7-2.5-5.1-5.5-5.6c-2.9-0.4-5.8-0.6-8.6-0.6
		c-2.3-0.1-4.5,0-7,0c-0.1,0.7-0.2,1.4-0.2,2.1c0,15,0,30.1,0.1,45.1c0,2.3,0.2,4.7,0.4,7.1c0.3,3.3,1.4,4.2,4.6,4.6
		c1.5,0.1,3,0.3,4.4,0.5l0,0.8h-27.4L159.1,236.3z"/>
	<path class="st0" d="M368.9,171.7v12.7l-0.6,0.1c-0.3-0.4-0.7-0.7-0.8-1.1c-0.9-4.1-2-5.4-6.1-5.9c-4.9-0.5-9.9-0.6-15-0.9
		c-0.1,1.1-0.2,1.7-0.2,2.4c0,14.9,0,29.8,0,44.8c0,2.5,0.3,5.1,0.5,7.6c0.2,2.7,1.6,4.1,4.3,4.2c1.5,0.1,3.1,0.3,4.6,0.5l-0.1,0.8
		h-27.4l-0.1-0.7c0.9-0.2,1.7-0.4,2.6-0.5c2.9,0,4.1-1.7,4.2-4.3c0.2-4.7,0.5-9.4,0.5-14.1c0.1-13.4,0-26.8,0-40.8
		c-6.3,0.4-12.5,0.6-18.6,1.4c-1.4,0.2-2.6,2.2-3.7,3.5c-0.5,0.6-0.8,1.5-1.5,2.1c-0.7-4.4,0.6-8.5,1.5-12c6.2,0.2,12,0.6,17.7,0.6
		c9.8,0.1,19.5,0.1,29.3,0C363,172.2,365.9,171.9,368.9,171.7z"/>
	<path class="st0" d="M223,83.2v16.6c-5.8,0-11.4,0-17-0.1c-0.7-0.3-1.2-0.9-1.4-1.6c0.2-4.5,0.5-9,0.9-13.5
		c0.2-0.7,0.8-1.2,1.5-1.4C212.3,83.1,217.6,83.2,223,83.2z"/>
	<path class="st0" d="M204.5,102.3H223v16.5h-6.8c-2.3,0-4.5,0-6.8,0c-4.6,0-3.9,0.5-4.2-3.8C204.8,110.8,204.7,106.7,204.5,102.3z"
		/>
	<path class="st0" d="M226.1,99.8c0-5.3,0-10.4,0.1-15.4c0-0.4,1.1-1.2,1.6-1.2c4.1-0.1,8.1-0.1,12.2,0c0.8,0.2,1.4,0.9,1.7,1.7
		c0.2,4.3,0.2,8.7,0.3,13c0,1.4-0.5,1.9-1.9,1.9C235.5,99.8,230.9,99.8,226.1,99.8z"/>
	<path class="st0" d="M223.4,80.7h-17.6c0.8-4.6,1.6-9.1,2.5-13.4c0.1-0.5,1.2-1,1.9-1c4.1-0.1,8.1-0.1,12.2,0
		c0.6,0,1.8,0.9,1.7,1.3C224,71.9,223.7,76.2,223.4,80.7z"/>
	<path class="st0" d="M243.5,135.6c0.2-4.6,0.4-8.7,0.7-12.8c0.3-0.7,0.9-1.3,1.7-1.4c5-0.1,10.1-0.1,15.7-0.1
		c-0.9,4.6-1.6,9-2.5,13.4c-0.3,0.5-0.8,0.9-1.4,0.9C253.2,135.6,248.6,135.6,243.5,135.6z"/>
	<path class="st0" d="M202.9,83.2c-0.3,5.4-0.5,10.5-0.9,15.6c0,0.4-1,1-1.6,1c-4,0.1-7.9,0-12.4,0c0.3-3.7,0.5-7.2,0.8-10.6
		c0.6-6,0.6-6,6.6-6H202.9z"/>
	<path class="st0" d="M188,102.2c4.5,0,8.6,0,12.8,0.1c0.5,0,1.3,1,1.3,1.5c0.3,4.4,0.6,8.8,0.7,13.3c-0.2,0.8-0.8,1.4-1.6,1.7
		c-3.3,0.2-6.7,0.1-10,0c-0.6,0-1.7-0.7-1.7-1.2C188.8,112.5,188.4,107.5,188,102.2z"/>
	<path class="st0" d="M279.5,102.3c-0.5,5.3-0.9,10.3-1.4,15.3c0,0.4-0.8,1-1.3,1c-3.9,0.1-7.7,0-12,0c0.3-5.2,0.6-10.1,1-15
		c0-0.5,1-1.2,1.6-1.2C271.2,102.2,274.9,102.3,279.5,102.3z"/>
	<path class="st0" d="M173.7,99.8c0.6-5.4,1.2-10.3,1.9-15.2c0.2-0.7,0.8-1.2,1.5-1.4c3.1-0.1,6.3-0.1,9.8-0.1
		c-0.5,5.4-0.9,10.4-1.4,15.5c0,0.4-1,1.1-1.5,1.1C180.8,99.9,177.5,99.8,173.7,99.8z"/>
	<path class="st0" d="M186.9,118.7c-3.5,0-6.6,0.1-9.6-0.1c-0.7-0.1-1.3-0.6-1.6-1.2c-0.7-4.9-1.2-9.9-1.9-15.3
		c3.7,0,7.1-0.1,10.3,0.1c0.7,0.2,1.3,0.7,1.5,1.4C186.1,108.5,186.4,113.4,186.9,118.7z"/>
	<path class="st0" d="M280.8,83.3c3.5,0,6.3-0.1,9.2,0.1c0.9,0.2,1.6,0.8,1.9,1.7c0.7,4.7,1.1,9.4,1.7,14.7c-3.7,0-6.9,0-10.2,0
		c-0.6-0.2-1-0.6-1.1-1.2C281.7,93.5,281.3,88.6,280.8,83.3z"/>
	<path class="st0" d="M205.8,135.7c-3.8,0-7.2,0.1-10.6-0.1c-0.7-0.1-1.4-0.6-1.7-1.3c-1.1-3.5-2-7.1-3-10.7
		c-0.2-0.7-0.3-1.4-0.5-2.5c4.2,0,8.2-0.1,12.2,0.1c0.5,0,1.2,1.1,1.3,1.7C204.3,127,205,131.1,205.8,135.7z"/>
	<path class="st0" d="M205.8,66.2c-0.8,4.6-1.5,8.8-2.3,12.9c-0.3,0.8-1,1.5-1.9,1.7c-3.7,0.2-7.4,0.1-11.7,0.1
		c0.7-2.7,1.3-5.1,1.9-7.4c1.9-7.2,1.9-7.2,9.5-7.2L205.8,66.2z"/>
	<path class="st0" d="M280.9,118.5c0.5-5.2,0.9-10.2,1.4-15.1c0.2-0.6,0.8-1.1,1.4-1.2c3.1-0.1,6.3,0,9.9,0c-0.4,3.5-0.5,6.7-1,9.9
		c-0.9,6.3-1,6.3-7.5,6.3L280.9,118.5z"/>
	<path class="st0" d="M261.9,135.6c0.9-4.7,1.5-8.8,2.4-12.8c0.3-0.8,1-1.3,1.7-1.5c3.7-0.1,7.4-0.1,11.5-0.1
		c-1.3,4.6-2.5,8.9-3.7,13.2c-0.2,0.6-0.7,1-1.3,1.1C269.1,135.6,265.7,135.6,261.9,135.6z"/>
	<path class="st0" d="M261.9,66.4c3.8,0,7.1-0.1,10.4,0.1c0.8,0.2,1.4,0.7,1.7,1.4c1.2,4.1,2.3,8.3,3.6,12.9c-4.3,0-8.2,0-12.1,0
		c-0.5-0.1-0.9-0.5-1.1-1C263.5,75.4,262.8,71.1,261.9,66.4z"/>
	<path class="st0" d="M242.2,150.1c0.3-3.7,0.6-7.1,1-10.3c0.2-0.7,0.8-1.3,1.5-1.5c4.4-0.1,8.8-0.1,13.8-0.1
		c-1.4,4-2.5,7.6-3.8,11.1c-0.1,0.4-1,0.7-1.6,0.7C249.6,150.1,246.1,150.1,242.2,150.1z"/>
	<path class="st0" d="M242.1,51.8c3.9,0,7.5,0,11.1,0c0.7,0.1,1.3,0.5,1.6,1.1c1.2,3.3,2.3,6.7,3.6,10.6c-4.9,0-9.4,0-13.8-0.1
		c-0.5,0-1.3-0.9-1.4-1.5C242.7,58.8,242.5,55.6,242.1,51.8z"/>
	<path class="st0" d="M176.3,80.8c1.8-4.9,3.4-9.3,5.1-13.8c0.4-0.5,0.9-0.8,1.5-0.8c2.7-0.1,5.4,0,8.4,0c-1.3,4.6-2.4,9-3.7,13.2
		c-0.3,0.7-1,1.2-1.7,1.3C182.9,80.9,179.8,80.8,176.3,80.8z"/>
	<path class="st0" d="M191.3,135.7c-3,0-5.8,0-8.5,0c-0.6-0.1-1.1-0.4-1.5-1c-1.7-4.3-3.2-8.7-4.9-13.6c3.6,0,6.7-0.1,9.8,0.1
		c0.7,0.2,1.3,0.7,1.6,1.5C188.9,126.9,190,131.1,191.3,135.7z"/>
	<path class="st0" d="M276.5,66.4c3.1,0,5.7,0,8.3,0c0.6,0.1,1.1,0.5,1.4,1c1.6,4.2,3.2,8.6,4.9,13.3c-3.5,0-6.5,0-9.6,0
		c-0.6-0.1-1.1-0.4-1.4-1C278.9,75.4,277.8,71.1,276.5,66.4z"/>
	<path class="st0" d="M276.5,135.6c1.3-4.7,2.4-9,3.6-13.2c0.4-0.6,1.1-1.1,1.8-1.1c2.9-0.1,5.8,0,9.2,0c-1.7,4.7-3.3,9.1-5,13.4
		c-0.4,0.5-1.1,0.9-1.7,0.9C282,135.7,279.6,135.6,276.5,135.6z"/>
	<path class="st0" d="M234.2,138.2c6.6,0,6.6,0,5.8,6.5c-0.7,5.3-0.7,5.3-6,5.3c-5.6,0-5.6,0-6-5.5c0-0.5,0-1.1-0.1-1.6
		c-0.3-4.7-0.3-4.7,4.4-4.7H234.2z"/>
	<path class="st0" d="M210.4,51.7c-1.2,3.8-2.3,7.3-3.5,10.6c-0.3,0.7-0.9,1.2-1.6,1.4c-3.3,0.1-6.6,0.1-10.8,0.1
		c2.2-4.2,4.1-7.8,6.1-11.3c0.5-0.5,1.2-0.8,1.9-0.7C205,51.7,207.5,51.7,210.4,51.7z"/>
	<path class="st0" d="M272.9,63.6c-4,0-7.1,0-10.1,0c-0.5,0-1.4-0.3-1.6-0.7c-1.3-3.5-2.4-7.1-3.8-11c3.1,0,5.5-0.1,7.9,0
		c0.7,0.1,1.4,0.4,1.8,1C268.9,56.2,270.7,59.6,272.9,63.6z"/>
	<path class="st0" d="M257.4,150c1.3-3.8,2.3-7.2,3.5-10.4c0.4-0.7,1.2-1.2,2-1.3c3-0.1,5.9-0.1,9.7-0.1c-2,4-3.8,7.6-5.7,11.1
		c-0.4,0.5-1,0.7-1.7,0.7C262.8,150,260.4,150,257.4,150z"/>
	<path class="st0" d="M173.1,118.2c-0.5,0.4-0.5,0.5-0.6,0.5c-6.4,0.4-6.4,0.4-7.3-6c-0.5-3.4-0.9-6.7-1.4-10.6
		c2.3,0,4.4-0.1,6.4,0.1c0.5,0,1.2,1,1.3,1.6C172.1,108.7,172.6,113.5,173.1,118.2z"/>
	<path class="st0" d="M173.1,83.2c-0.6,5.3-1.1,10.3-1.8,15.3c-0.2,0.6-0.7,1.1-1.4,1.3c-1.9,0.2-3.9,0.1-6.3,0.1
		c0.7-5.4,1.4-10.5,2.2-15.5c0.2-0.5,0.7-0.9,1.3-1.1C169,83.1,170.9,83.2,173.1,83.2z"/>
	<path class="st0" d="M294.6,83.9c0.5-0.4,0.5-0.5,0.6-0.5c7.5-0.3,6.3-0.7,7,5.2c0.4,3.1,0.9,6.2,1.3,9.4c0,0.3,0.1,1,0,1
		c-0.8,0.4-1.7,0.7-2.7,0.7c-1.5-0.1-4.2-0.3-4.3-0.9C295.7,93.8,295.2,88.7,294.6,83.9z"/>
	<path class="st0" d="M294.6,118.6c0.6-5.3,1.2-10.2,1.8-15.1c0.2-0.6,0.8-1.1,1.4-1.2c1.9-0.1,3.7-0.1,5.9-0.1
		c-0.7,5.2-1.3,10.1-2.1,15c-0.1,0.5-1.2,1.2-1.9,1.3C298,118.7,296.3,118.7,294.6,118.6z"/>
	<path class="st0" d="M182.8,63.9c2.7-4,4.8-7.5,7.4-10.8c0.7-0.9,2.6-1.1,4-1.3c1.3-0.1,2.6-0.1,3.9,0c-2,3.9-3.7,7.5-5.5,10.9
		c-0.5,0.6-1.2,1.1-1.9,1.1C188.3,63.9,185.9,63.9,182.8,63.9z"/>
	<path class="st0" d="M197.7,149.9c-5.1,1.6-8.1-0.5-10.2-4.8c-1.2-2.3-2.8-4.4-4.6-7.1c3,0,5.6,0,8.1,0c0.6,0.1,1.1,0.4,1.5,0.9
		C194.2,142.7,196,146.3,197.7,149.9z"/>
	<path class="st0" d="M166.6,80.8c2-4.7,3.6-9.2,5.6-13.3c1.4-2.8,4.2-0.7,6.7-1.5c-1.8,4.9-3.3,9.3-4.9,13.5
		c-0.5,0.7-1.2,1.2-2.1,1.3C170.2,80.9,168.4,80.9,166.6,80.8z"/>
	<path class="st0" d="M178.5,135.5c-0.1,0-0.2,0.1-0.2,0.1c-5.5,0.5-5.5,0.5-7.5-4.5c-1.3-3.1-2.5-6.2-3.8-9.3
		c-0.1-0.1,0-0.3,0.1-0.5c0.2-0.1,0.3-0.2,0.5-0.2c6-0.5,6-0.5,8,5.2c1,2.9,2,5.8,3.1,8.7C178.7,135.1,178.6,135.3,178.5,135.5z"/>
	<path class="st0" d="M300.7,121.2c-2,4.8-3.5,9.2-5.7,13.1c-0.7,1.2-3.6,1.2-5.5,1.7l-0.5-0.9c1.5-4.3,3-8.6,4.7-12.8
		c0.2-0.5,1.2-1,1.9-1.1C297.1,121.2,298.6,121.2,300.7,121.2z"/>
	<path class="st0" d="M284.4,63.6c-3,0-5.2,0.1-7.3,0c-0.8,0-1.5-0.4-2-1c-1.8-3.4-3.5-6.8-5.2-10.4c4.2-0.9,7.5-0.5,9.5,3.7
		C280.5,58.4,282.4,60.6,284.4,63.6z"/>
	<path class="st0" d="M284.5,138.2c-2.6,3.9-4.6,7.8-7.5,10.7c-1.3,1.4-4.4,1.1-7.3,1.7c2.1-4.3,3.8-7.9,5.5-11.4
		c0.4-0.6,1.1-0.9,1.8-0.9C279.3,138.1,281.7,138.2,284.5,138.2z"/>
	<path class="st0" d="M300.7,80.7c-1.9,0.1-3.7,0.1-5.6-0.1c-0.7-0.2-1.3-0.7-1.6-1.4c-1.6-4-3-8.1-4.4-12.1c3.3-1.7,5.6-1,6.9,2
		C297.5,72.8,299,76.5,300.7,80.7z"/>
	<path class="st0" d="M187.8,150c-3.1,0.8-5-0.2-6.6-2.6c-2.1-3-4.4-5.9-6.7-8.9c4-1.3,5.3-0.8,7.4,2.4L187.8,150z"/>
	<path class="st0" d="M174.5,63.4c2.7-3.5,5.3-7.3,8.3-10.6c0.9-1,3-1,4.5-1.5l0.5,0.7c-2.4,3.7-4.5,7.5-7.4,10.8
		c-1,1.2-3.7,0.9-5.6,1.3L174.5,63.4z"/>
	<path class="st0" d="M292.7,138.7c-2.6,3.4-5.1,7-8,10.2c-0.9,1-2.9,1-4.3,1.4l-0.4-0.7c2.3-3.5,4.3-7.1,6.9-10.2
		c1-1.2,3.4-1.2,5.2-1.7L292.7,138.7z"/>
	<path class="st0" d="M292.7,63.2c-3.3,0.7-5.6,0.5-7.2-2.5s-3.6-5.6-5.5-8.5c2.6-0.8,4.3-0.2,5.7,1.9
		C287.9,57.1,290.3,60,292.7,63.2z"/>
	<path class="st0" d="M387.7,168.6c-0.1-1.3-0.2-2.7-0.3-4.8c-0.9,2.2-1.5,3.6-2.4,5.8c-0.9-2.2-1.5-3.7-2.4-5.7l-0.3,4.7h-0.9
		c0-2.2,0-4.3,0-6.5c0-0.2,0.6-0.6,0.8-0.5c0.5,0.2,0.9,0.5,1.1,0.9c0.6,1.3,1,2.7,1.6,4.2l2.7-5.4l0.8,0.4v6.9L387.7,168.6z"/>
	<path class="st0" d="M374.7,161.7h5.5c-4.2,1.1-0.8,5.1-2.7,7C375.1,167,379.2,162.7,374.7,161.7z"/>
</g>
</svg>
